<?xml version="1.0" standalone="no"?>
<!DOCTYPE svg PUBLIC "-//W3C//DTD SVG 20010904//EN"
 "http://www.w3.org/TR/2001/REC-SVG-20010904/DTD/svg10.dtd">
<svg version="1.0" xmlns="http://www.w3.org/2000/svg"
 width="287.000000pt" height="287.000000pt" viewBox="0 0 287.000000 287.000000"
 preserveAspectRatio="xMidYMid meet">
<metadata>
Created by potrace 1.14, written by Peter Selinger 2001-2017
</metadata>
<g transform="translate(0.000000,287.000000) scale(0.100000,-0.100000)"
fill="#000000" stroke="none">
<path d="M1347 2853 c-3 -3 -119 -15 -139 -15 -10 1 -20 -4 -23 -9 -4 -5 -10
-7 -15 -4 -4 2 -29 -2 -56 -10 -26 -8 -50 -12 -52 -10 -3 2 -14 -1 -26 -7 -11
-7 -28 -14 -36 -15 -20 -5 -28 -8 -70 -24 -19 -7 -38 -12 -42 -11 -5 1 -8 -2
-8 -7 0 -5 -12 -12 -27 -16 -16 -3 -36 -14 -45 -22 -10 -9 -18 -13 -18 -9 0 3
-18 -5 -40 -19 -22 -14 -44 -25 -50 -25 -5 0 -10 -4 -10 -10 0 -5 -7 -10 -15
-10 -8 0 -15 -4 -15 -10 0 -5 -6 -10 -14 -10 -8 0 -17 -7 -20 -16 -4 -9 -9
-14 -12 -11 -4 3 -12 1 -19 -6 -7 -7 -28 -23 -46 -37 -45 -34 -178 -167 -209
-208 -14 -19 -30 -39 -37 -46 -21 -23 -103 -154 -103 -165 0 -6 -5 -11 -11
-11 -5 0 -8 -4 -4 -9 3 -5 1 -12 -5 -16 -8 -5 -41 -72 -41 -82 0 -2 -11 -28
-24 -58 -14 -31 -25 -62 -25 -70 0 -8 -3 -15 -7 -15 -5 0 -9 -11 -9 -25 -1
-14 -5 -33 -9 -43 -4 -9 -9 -24 -10 -32 -1 -8 -5 -28 -9 -45 -22 -98 -41 -375
-26 -375 3 0 5 -21 5 -48 0 -26 3 -60 8 -77 4 -16 10 -46 13 -65 3 -19 7 -44
9 -55 2 -11 8 -32 13 -46 6 -15 8 -30 5 -33 -4 -3 0 -6 7 -6 7 0 11 -3 7 -6
-6 -6 11 -56 44 -131 10 -23 20 -48 21 -55 2 -7 6 -15 9 -18 3 -3 18 -30 32
-60 15 -30 27 -50 27 -45 0 6 8 -6 18 -25 23 -46 92 -140 103 -140 5 0 9 -6 9
-12 0 -7 43 -55 95 -107 52 -51 95 -90 95 -86 0 5 8 -1 17 -11 10 -11 35 -30
55 -44 21 -14 38 -29 38 -33 0 -5 4 -5 10 -2 6 3 10 1 10 -5 0 -6 4 -9 9 -6 5
4 11 3 13 -2 3 -7 77 -56 88 -58 3 0 36 -15 73 -32 38 -18 70 -32 72 -32 2 0
16 -5 32 -11 15 -6 28 -9 28 -8 0 1 9 -3 21 -9 22 -12 56 -21 112 -29 17 -3
32 -8 32 -12 0 -4 8 -7 18 -8 9 0 49 -4 87 -8 123 -15 362 -9 445 10 14 3 36
7 50 10 43 8 187 53 212 66 13 7 23 11 23 9 0 -1 20 6 45 18 25 11 49 20 54
20 5 0 12 4 15 9 3 5 27 20 54 33 26 14 47 28 47 31 0 4 14 12 30 19 17 7 30
17 30 23 0 6 3 8 6 4 3 -3 17 4 32 16 53 45 118 103 140 125 12 12 27 22 34
22 6 0 8 3 5 6 -4 4 1 14 11 23 10 9 36 39 57 66 22 28 42 52 45 55 3 3 20 28
38 55 17 28 36 55 41 61 12 14 92 181 92 191 0 4 7 18 15 30 8 13 12 23 9 23
-3 0 2 16 10 36 8 20 18 48 21 63 7 36 12 56 14 59 3 3 5 12 14 62 4 25 10 59
14 75 8 45 7 343 -2 400 -5 28 -10 57 -11 65 -1 8 -5 22 -7 30 -3 8 -16 53
-28 100 -13 47 -27 91 -33 98 -5 6 -7 12 -4 12 4 0 -5 24 -19 53 -14 28 -33
68 -42 87 -9 19 -21 38 -27 42 -5 4 -7 8 -3 8 4 0 0 9 -9 20 -23 26 -60 26
-68 0 -6 -18 -12 -13 -47 37 -22 32 -62 84 -89 115 -47 54 -61 76 -39 63 15
-9 40 13 40 35 0 19 -45 70 -84 95 -21 14 -28 15 -44 3 -10 -7 -18 -21 -16
-30 1 -13 -14 -6 -54 26 -32 24 -84 60 -116 81 -54 34 -58 39 -38 46 14 6 20
14 17 29 -4 23 -28 50 -44 50 -14 0 -54 22 -63 35 -4 6 -8 7 -8 3 0 -4 -25 4
-55 18 -31 13 -64 24 -73 24 -10 0 -22 4 -28 9 -5 5 -22 12 -39 14 -16 3 -37
8 -45 11 -23 8 -61 15 -170 31 -49 7 -258 14 -263 8z m56 -460 c-2 -47 -3 -53
-10 -52 -5 1 -10 0 -13 -1 -3 -1 -16 -3 -30 -5 -139 -14 -265 -55 -375 -124
-22 -13 -42 -23 -44 -22 -2 2 -7 -1 -10 -6 -3 -5 -28 -26 -55 -46 -27 -20 -45
-37 -41 -37 4 0 -9 -13 -30 -30 -21 -16 -35 -30 -31 -30 4 0 -4 -10 -17 -22
-26 -26 -93 -121 -88 -127 1 -2 -1 -7 -6 -10 -14 -10 -63 -116 -73 -156 -1 -5
-7 -21 -12 -35 -12 -32 -20 -69 -21 -97 -1 -13 -3 -23 -6 -23 -4 0 -7 -21 -8
-47 -3 -48 -13 -63 -42 -58 -23 3 -18 111 10 217 81 310 305 559 609 679 70
27 215 59 260 56 29 -2 34 -6 33 -24z m282 2 c200 -53 332 -130 478 -279 152
-155 253 -371 271 -578 4 -49 2 -67 -8 -71 -14 -6 -37 5 -39 19 -1 5 -9 9 -17
9 -24 0 -25 41 0 48 22 6 22 12 -1 117 -21 97 -154 334 -184 328 -7 -2 -47 32
-88 74 -65 65 -183 158 -202 158 -3 0 -23 11 -45 25 -22 14 -40 22 -40 19 0
-4 -6 -2 -12 4 -11 8 -123 44 -130 42 -2 -1 -15 3 -30 9 -15 5 -52 13 -83 16
-32 3 -61 8 -66 11 -5 3 -9 21 -9 41 l0 35 73 -5 c39 -4 99 -13 132 -22z
m-135 -139 c44 -5 65 -10 113 -22 12 -3 28 -6 35 -6 6 -1 12 -4 12 -8 0 -4 6
-7 13 -7 20 0 126 -53 188 -94 59 -40 172 -145 181 -170 4 -11 -22 -33 -94
-77 -55 -34 -103 -62 -108 -62 -4 0 -21 12 -38 28 -37 34 -104 87 -111 88 -3
0 -32 13 -64 28 -32 16 -70 29 -83 30 -13 0 -24 4 -24 7 0 6 -9 7 -54 10 -14
1 -27 7 -29 13 -6 16 -6 217 -1 239 3 9 9 15 13 13 3 -3 27 -7 51 -10z m-146
-114 c-1 -64 -2 -122 -3 -129 -1 -6 -13 -12 -28 -12 -30 0 -34 -1 -103 -20
-25 -7 -47 -12 -49 -11 -2 1 -7 -3 -10 -8 -9 -16 -33 -16 -66 -2 -44 18 -105
29 -111 19 -3 -5 -9 -7 -14 -4 -12 7 -58 -21 -89 -54 -47 -52 -56 -121 -24
-187 19 -39 19 -40 -3 -94 -12 -30 -20 -58 -17 -62 2 -5 0 -8 -4 -8 -5 0 -9
-8 -10 -17 -3 -69 -8 -83 -28 -84 -60 -4 -222 -4 -232 -1 -7 2 -10 8 -8 13 3
4 8 28 10 51 2 24 7 57 11 73 3 17 7 36 7 43 0 6 4 12 9 12 5 0 7 4 3 10 -3 5
-2 17 3 27 5 10 27 55 48 101 21 45 42 82 46 82 4 0 8 7 8 15 0 8 5 15 12 15
6 0 9 3 5 6 -3 3 2 13 11 23 10 9 31 32 47 51 38 44 145 135 145 124 0 -4 7 1
15 12 8 10 15 15 15 9 0 -6 3 -5 8 1 6 10 86 56 105 60 4 1 9 3 12 4 3 1 8 3
13 5 4 1 21 7 37 14 17 7 41 15 54 17 13 3 40 8 60 13 20 4 54 8 76 9 l40 2
-1 -118z m-8 -225 c4 -4 8 -59 8 -123 l1 -116 -50 -23 c-52 -23 -115 -75 -115
-94 0 -6 -5 -11 -11 -11 -5 0 -7 -4 -4 -10 3 -5 2 -10 -2 -10 -5 0 -9 -9 -10
-21 -3 -40 -17 -44 -135 -44 -62 1 -119 4 -126 9 -7 4 -10 17 -6 30 3 12 7 29
8 37 14 62 20 79 27 79 5 0 9 7 9 16 0 11 6 14 23 8 30 -10 83 -7 107 6 11 6
20 8 20 5 0 -4 18 12 39 34 43 45 63 106 50 152 -11 41 -7 44 106 77 33 10 51
10 61 -1z m134 3 c0 -5 6 -7 13 -4 7 2 30 -2 50 -11 20 -8 38 -15 39 -14 7 3
78 -36 78 -43 0 -4 6 -8 13 -8 26 0 125 -111 160 -178 34 -64 39 -80 54 -159
6 -38 19 -35 -137 -37 -89 -1 -107 2 -118 17 -7 9 -10 22 -7 27 3 6 1 10 -5
10 -6 0 -8 5 -5 10 3 6 1 10 -4 10 -6 0 -11 5 -11 11 0 23 -82 93 -122 104 -5
2 -11 4 -15 5 -5 1 -11 2 -15 1 -4 0 -10 9 -12 22 -5 24 -5 228 0 237 5 10 44
9 44 0z m-440 -24 c0 -5 3 -7 6 -3 10 9 53 -39 58 -65 11 -61 -57 -128 -110
-108 -12 5 -24 7 -27 4 -9 -9 -51 60 -52 86 -1 47 52 96 105 96 11 0 20 -5 20
-10z m314 -369 c-1 -28 -2 -55 -3 -58 -1 -4 -79 -4 -113 0 -24 3 34 83 77 107
32 18 41 7 39 -49z m163 11 c12 -13 24 -34 25 -48 3 -22 0 -23 -52 -24 l-54
-1 -3 40 c-1 22 0 50 2 63 5 21 7 21 33 8 15 -8 37 -25 49 -38z m706 -21 c-4
-23 -8 -24 -81 -22 -64 1 -80 -2 -95 -17 -24 -24 -43 -10 -41 29 1 15 3 29 3
31 1 1 50 2 110 2 108 0 108 0 104 -23z m-1742 -151 c3 -60 25 -174 44 -231 5
-12 -1 -9 -15 10 -20 28 -21 29 -15 5 17 -60 108 -232 162 -305 144 -194 325
-308 561 -355 29 -5 68 -10 86 -10 19 0 39 -6 45 -14 13 -16 5 -25 -19 -21 -8
1 -38 5 -66 9 -81 9 -218 53 -302 95 -300 151 -499 441 -538 783 l-6 57 31 -1
c24 -1 31 -6 32 -22z m336 -1 c2 -11 5 -32 6 -47 2 -15 6 -31 10 -34 4 -4 7
-20 7 -36 0 -15 5 -28 10 -28 6 0 10 -9 10 -20 0 -11 5 -20 10 -20 6 0 10 -9
10 -20 0 -11 5 -20 12 -20 6 0 9 -3 5 -6 -5 -6 0 -15 31 -49 6 -7 12 -16 12
-19 0 -21 128 -123 195 -156 17 -8 33 -19 37 -25 4 -5 8 -7 8 -3 0 4 18 1 41
-7 23 -8 45 -12 50 -9 5 3 9 1 9 -4 0 -5 16 -8 35 -7 19 0 35 -3 35 -7 0 -13
-33 -25 -103 -38 -37 -7 -66 -15 -63 -17 3 -3 41 -5 85 -5 77 0 111 -11 76
-24 -25 -10 -184 -11 -235 -2 -25 5 -56 10 -70 13 -66 12 -178 58 -237 97 -23
15 -46 28 -52 28 -29 0 -153 231 -165 310 -1 3 -4 10 -7 15 -3 6 -4 20 -3 33
0 12 -2 22 -5 22 -4 0 -8 25 -9 55 l-1 55 126 -3 c117 -2 126 -3 130 -22z
m339 5 c11 -68 80 -144 155 -173 l44 -17 0 -126 0 -126 -40 6 c-65 9 -81 14
-114 30 -16 9 -37 16 -45 16 -8 0 -19 6 -23 13 -4 7 -21 20 -36 30 -35 23
-117 108 -117 123 0 3 -6 12 -14 19 -27 28 -84 204 -69 218 3 3 62 5 131 4
102 -2 126 -5 128 -17z m191 7 c3 -6 7 -32 7 -58 1 -38 -2 -48 -14 -46 -25 4
-78 39 -84 56 -3 9 -10 25 -15 37 -9 20 -6 21 45 22 30 0 57 -5 61 -11z m203
-2 c-5 -7 -7 -15 -3 -18 3 -4 1 -7 -6 -7 -7 0 -10 -3 -8 -7 3 -5 -8 -21 -24
-36 -16 -16 -29 -25 -29 -21 0 3 -7 1 -15 -6 -22 -19 -30 -5 -31 54 l-1 53 63
0 c48 0 61 -3 54 -12z m324 -9 c-23 -76 -52 -136 -94 -199 -97 -144 -204 -226
-302 -230 l-43 -2 -1 128 c-1 111 1 127 15 127 38 0 140 71 141 98 0 6 4 12 8
12 8 0 37 69 34 81 0 3 55 6 124 6 121 0 124 -1 118 -21z m149 18 c14 -5 14
-11 0 -57 -19 -64 -61 -151 -104 -214 -72 -106 -229 -233 -364 -293 -82 -37
-122 -46 -122 -25 0 9 16 19 41 26 151 41 320 158 406 284 38 56 84 154 99
215 20 77 18 74 44 64z m362 -14 c3 -11 4 -28 1 -37 -2 -10 -7 -40 -11 -68
-14 -115 -97 -312 -174 -414 l-18 -24 -5 27 c-4 18 3 38 25 67 27 37 29 42 14
51 -22 12 -22 31 1 24 30 -10 94 143 116 280 7 44 12 88 10 97 -3 24 33 22 41
-3z m-263 -318 c16 -19 1 -27 -19 -10 -35 30 -41 28 -74 -17 -18 -25 -39 -45
-46 -45 -8 0 3 23 28 60 l42 59 29 -17 c16 -9 34 -23 40 -30z m-1342 -184 c0
-6 -6 -5 -15 2 -8 7 -15 14 -15 16 0 2 7 1 15 -2 8 -4 15 -11 15 -16z m1038
-58 c-26 -23 -169 -110 -180 -110 -4 0 -19 -5 -35 -12 -57 -24 -162 -45 -166
-34 -2 6 28 18 72 29 90 21 199 72 272 127 53 39 84 39 37 0z m-872 -59 c91
-45 224 -78 344 -86 19 -2 41 -3 48 -4 6 -1 12 -6 12 -12 0 -15 -137 -3 -240
22 -90 22 -191 65 -228 98 -13 10 -33 27 -45 36 -12 9 -6 7 13 -4 19 -11 63
-33 96 -50z m1134 -6 c-12 -13 -31 -26 -42 -29 -16 -4 -12 5 18 35 40 41 63
36 24 -6z m-106 -104 c36 -3 -104 -88 -220 -133 -117 -45 -306 -78 -320 -56
-10 16 9 26 66 32 30 3 70 10 88 15 17 5 32 8 32 6 0 -16 220 83 280 126 14
10 34 16 45 14 11 -2 24 -4 29 -4z"/>
</g>
</svg>
